<svg xmlns="http://www.w3.org/2000/svg" xmlns:xlink="http://www.w3.org/1999/xlink" width="25.549" height="27.495" viewBox="0 0 25.549 27.495"><defs><clipPath id="a"><rect width="22.01" height="24.352" fill="none"/></clipPath></defs><g transform="translate(3.809) rotate(9)"><g transform="translate(0 0)" clip-path="url(#a)"><path d="M21.986,13.537c-.35-4.552-7.7-4.9-7.7-4.9s1.751-4.2,0-6.653-7-3.5-9.1,2.1c0,0-3.852-.35-4.9,3.151s1.05,6.3,3.5,6.653c0,0-3.078,3.186-1.19,7.02s8.543,4.184,12.4,2.433,7.353-5.252,7-9.8M4.129,19.84c-1.751-2.451,1.4-5.6,2.451-6.3,0,0,0,5.952,3.5,8.754,0,0-4.2,0-5.952-2.451m13.227-.773c-3.231-3-3.715-5.774-3.773-6.83a.923.923,0,0,0-.405-.721l-.148-.1a.729.729,0,0,0-.92.091.891.891,0,0,0-.268.671c.209,4.024,3.545,7.684,4.11,8.277a.111.111,0,0,1-.006.162A12.269,12.269,0,0,1,12.6,21.923a.106.106,0,0,1-.111-.036c-.28-.34-1.838-2.244-3.107-4.148A10.67,10.67,0,0,1,7.986,12.71a.458.458,0,0,1,.156-.372,9.218,9.218,0,0,1,2.813-1.347A.784.784,0,0,0,10.471,9.5a19.785,19.785,0,0,0-4.6,2.557.776.776,0,0,1-.386.145c-.848.078-3.81.134-3.81-2.866a3.207,3.207,0,0,1,3.151-3.5s.7,2.8,2.451,3.852,2.8-.7,2.451-2.451-2.8-2.8-2.8-2.8,0-.7,1.05-1.751a3.594,3.594,0,0,1,5.252.7c1.111,1.666-.2,4.653-.791,5.818a.763.763,0,0,0,.143.886l.075.075a.763.763,0,0,0,.537.224c2.149.007,5.673.15,6.34,3.151.63,2.836-1.575,5.1-2.023,5.531a.115.115,0,0,1-.157,0M6.625,6.35a.074.074,0,0,1,.107-.086c.571.307,2.5,1.421,1.6,2.021S6.8,6.941,6.625,6.35" transform="translate(0 0)" fill="#fff"/><path d="M47.893,35.712a1.05,1.05,0,1,1-1.05-1.05,1.05,1.05,0,0,1,1.05,1.05" transform="translate(-29.758 -22.525)" fill="#fff"/></g></g></svg>