<svg xmlns="http://www.w3.org/2000/svg" xmlns:xlink="http://www.w3.org/1999/xlink" width="201.126" height="74.676" viewBox="0 0 201.126 74.676"><defs><clipPath id="a"><rect width="201.126" height="74.676" transform="translate(0 0)" fill="#ffc63e" stroke="rgba(0,0,0,0)" stroke-miterlimit="10" stroke-width="1"/></clipPath></defs><g transform="translate(9.398)"><g transform="translate(-9.398 0)"><g clip-path="url(#a)"><path d="M0,0S16.706,0,22.647,8.912s8.912,11.882,14.853,2.97,7.151-8.911,19.913-8.911,18.7,8.911,18.7,20.794S70.3,42.216,73.267,51.127s11.882,8.912,11.882-2.97-3.09-15.481-3.09-24.392S84.526,2.971,93.689,2.971s24.016,8.911,35.9,8.911,14.853-8.911,32.676-8.911,17.824,17.823,23.765,17.823S195.059,0,201,0Z" fill="#ffc63e"/><path d="M0-.5H201v1c-1.146,0-2.319.986-3.586,3.014a57.75,57.75,0,0,0-3.441,7.082c-2.389,5.5-4.646,10.7-7.944,10.7a4.148,4.148,0,0,1-3.19-1.747,26.9,26.9,0,0,1-2.544-3.918,29.68,29.68,0,0,0-6.024-8.042,17.53,17.53,0,0,0-12.007-4.115A38.942,38.942,0,0,0,150.575,5.1a48.921,48.921,0,0,0-7.981,3.443c-3.88,1.973-7.545,3.837-13.006,3.837-6.412,0-13.506-2.5-20.365-4.917-5.829-2.054-11.335-3.994-15.534-3.994-3.9,0-6.859,2.272-8.792,6.753-2.034,4.715-2.338,10.508-2.338,13.541a43.314,43.314,0,0,0,1.367,10.224,58.656,58.656,0,0,1,1.723,14.168,13.64,13.64,0,0,1-1.714,7.321,4.973,4.973,0,0,1-4.178,2.5c-2.875,0-5.609-2.628-6.964-6.695-1.728-5.183-.582-9.522.744-14.547a48.562,48.562,0,0,0,2.08-12.973c0-6-1.539-11.024-4.451-14.534a15.048,15.048,0,0,0-5.646-4.223,20.28,20.28,0,0,0-8.108-1.537c-6.3,0-9.773,0-12.32,1.075-2.5,1.055-4.235,3.2-7.177,7.614-2.583,3.875-4.667,5.6-6.755,5.6-1.386,0-2.754-.759-4.3-2.389a47.782,47.782,0,0,1-4.626-6.185A15.455,15.455,0,0,0,16.371,4.2,30.658,30.658,0,0,0,8.985,1.6,45.819,45.819,0,0,0,0,.5ZM198.58.5H8.63q.286.061.576.126a31.652,31.652,0,0,1,7.627,2.69,16.436,16.436,0,0,1,6.23,5.318,47.016,47.016,0,0,0,4.518,6.05c1.349,1.418,2.487,2.078,3.58,2.078,1.695,0,3.577-1.639,5.923-5.158,3.057-4.585,4.883-6.826,7.62-7.98s6.277-1.153,12.709-1.153A21.269,21.269,0,0,1,65.919,4.09a16.039,16.039,0,0,1,6.017,4.5C75,12.284,76.617,17.53,76.617,23.765A49.39,49.39,0,0,1,74.5,36.994c-1.286,4.87-2.4,9.076-.762,13.975a10.877,10.877,0,0,0,2.709,4.52,4.906,4.906,0,0,0,3.306,1.49A3.958,3.958,0,0,0,83.1,54.935a12.68,12.68,0,0,0,1.553-6.778,57.06,57.06,0,0,0-1.7-13.951,44.131,44.131,0,0,1-1.391-10.441c0-3.11.314-9.057,2.42-13.937a13.708,13.708,0,0,1,3.709-5.247,9.185,9.185,0,0,1,6-2.11c4.37,0,9.954,1.968,15.866,4.051,6.78,2.389,13.791,4.86,20.033,4.86,5.221,0,8.619-1.728,12.553-3.728,4.777-2.429,10.192-5.183,20.123-5.183A18.488,18.488,0,0,1,174.925,6.83a30.927,30.927,0,0,1,6.236,8.3c1.666,2.886,2.982,5.165,4.868,5.165,1.146,0,2.319-.986,3.586-3.014a57.75,57.75,0,0,0,3.441-7.082C194.813,6.151,196.5,2.27,198.58.5Z" fill="rgba(0,0,0,0)"/></g></g></g></svg>