<svg xmlns="http://www.w3.org/2000/svg" xmlns:xlink="http://www.w3.org/1999/xlink" width="83.916" height="46.303" viewBox="0 0 83.916 46.303"><defs><clipPath id="a"><rect width="83.916" height="46.303" fill="#f16524" stroke="rgba(0,0,0,0)" stroke-miterlimit="10" stroke-width="1"/></clipPath></defs><g transform="translate(0 0)"><g clip-path="url(#a)"><path d="M0,0S6.97,0,9.449,5.526s3.718,7.368,6.2,1.842,2.984-5.525,8.308-5.525,7.8,5.525,7.8,12.893S29.33,26.176,30.569,31.7s4.958,5.526,4.958-1.842-1.289-9.6-1.289-15.125S35.267,1.842,39.09,1.842,49.11,7.368,54.068,7.368s6.2-5.525,13.633-5.525,7.437,11.051,9.915,11.051S81.384,0,83.863,0Z" transform="translate(0 0)" fill="#f16524"/><path d="M0-.5H83.863v1c-.116,0-.546.123-1.212,1.708A44.971,44.971,0,0,0,81.22,6.587a45.58,45.58,0,0,1-1.469,4.486c-.454,1.081-1.107,2.321-2.134,2.321-1.249,0-1.88-1.623-2.678-3.677a19.552,19.552,0,0,0-2.486-4.94A5.74,5.74,0,0,0,67.7,2.342c-3.926,0-6,1.565-8,3.079-1.665,1.258-3.237,2.447-5.633,2.447-2.763,0-5.761-1.57-8.66-3.088-2.393-1.253-4.654-2.437-6.319-2.437-1.469,0-2.606,1.35-3.38,4.014a32.7,32.7,0,0,0-.973,8.38,39.2,39.2,0,0,0,.57,6.333,53.274,53.274,0,0,1,.72,8.792,11.936,11.936,0,0,1-.723,4.571c-.648,1.488-1.548,1.71-2.026,1.71-1.372,0-2.6-1.659-3.2-4.33-.723-3.224-.244-5.919.31-9.04a43.645,43.645,0,0,0,.867-8.036A18.8,18.8,0,0,0,29.417,5.77a6,6,0,0,0-5.462-3.427c-2.564,0-3.976,0-4.956.614s-1.688,1.922-2.9,4.616C14.96,10.118,14.033,11.2,13,11.2c-.925,0-1.622-.922-2.066-1.615A31.732,31.732,0,0,1,8.993,5.731,8.494,8.494,0,0,0,3.664,1.174,12.868,12.868,0,0,0,0,.5ZM82.405.5H4.715a9.374,9.374,0,0,1,5.19,4.821C10.724,7.148,12.1,10.2,13,10.2c.376,0,1.061-.528,2.188-3.041,1.294-2.885,2.075-4.3,3.278-5.054,1.223-.767,2.738-.767,5.487-.767a7.024,7.024,0,0,1,6.335,3.94,19.769,19.769,0,0,1,1.968,9.454,44.478,44.478,0,0,1-.882,8.211c-.536,3.015-1,5.618-.319,8.646.547,2.438,1.534,3.548,2.22,3.548.869,0,1.75-1.814,1.75-5.281a51.745,51.745,0,0,0-.709-8.644,40.024,40.024,0,0,1-.581-6.481A33.7,33.7,0,0,1,34.75,6.077a9.4,9.4,0,0,1,1.582-3.314A3.48,3.48,0,0,1,39.09,1.342c1.911,0,4.277,1.239,6.782,2.551,2.792,1.462,5.679,2.974,8.2,2.974,2.061,0,3.437-1.04,5.03-2.244,2.035-1.538,4.341-3.281,8.6-3.281a6.683,6.683,0,0,1,5.541,2.821,20.621,20.621,0,0,1,2.629,5.192c.553,1.424,1.181,3.039,1.746,3.039.116,0,.546-.123,1.212-1.708A44.971,44.971,0,0,0,80.26,6.306a45.578,45.578,0,0,1,1.469-4.486A8.059,8.059,0,0,1,82.405.5Z" transform="translate(0 0)" fill="rgba(0,0,0,0)"/></g></g></svg>