<svg xmlns="http://www.w3.org/2000/svg" xmlns:xlink="http://www.w3.org/1999/xlink" width="65.719" height="81.945" viewBox="0 0 65.719 81.945"><defs><clipPath id="a"><rect width="65.719" height="81.945" fill="#ffc63e"/></clipPath></defs><g transform="translate(0 0)" clip-path="url(#a)"><path d="M0,0H5.035a25.862,25.862,0,0,1,9.376,3.21,9.676,9.676,0,0,1,4.148,3.944,34,34,0,0,1,1.751,4.29,41.911,41.911,0,0,1,1.867,9.437c.29,3.055.419,6.132.483,9.2.124,5.893.021,11.789-.348,17.67a52.712,52.712,0,0,1-.92,7.593c-.67,3.177-1.537,6.311-2.318,9.464a26.19,26.19,0,0,0-.942,8.509,8.831,8.831,0,0,0,1.454,4.924c3.444,4.492,10.759,4.864,14.789,1.288A6.34,6.34,0,0,0,36.764,74.6a26.4,26.4,0,0,0-.673-7.379c-1.035-3.749-2.161-6.415-3.256-10.139a42.212,42.212,0,0,1-1.517-7.9c-.458-4.789-.606-9.6-.587-14.407.019-4.96-.282-9.923.365-14.873a30.742,30.742,0,0,1,1.694-7.09,24.094,24.094,0,0,1,5.1-7.959A15.032,15.032,0,0,1,48.007,0h2.368a5.183,5.183,0,0,1,4.411,2.9c.506,1,1.08,1.969,1.527,2.994a22.485,22.485,0,0,1,1.966,7.841c.12,2.321.045,4.653.074,6.98a21,21,0,0,1-2.16,9.368,19.739,19.739,0,0,0-1.669,4.979,4.491,4.491,0,0,0,2,4.709,6.106,6.106,0,0,0,6.873-.345A3.437,3.437,0,0,0,64.831,36.3a9.948,9.948,0,0,0-.542-2.723,39.853,39.853,0,0,0-1.985-4.31,15.736,15.736,0,0,1-2.123-9.012,21.01,21.01,0,0,0,.12-3.347A42.689,42.689,0,0,1,61.58,3.161l.009-.032A4.255,4.255,0,0,1,65.719,0" transform="translate(0 0)" fill="#ffc63e"/></g></svg>